<?xml version="1.0"?>
<svg width="640" height="400" xmlns="http://www.w3.org/2000/svg" xmlns:svg="http://www.w3.org/2000/svg">
 <!-- Created with SVG-edit - http://svg-edit.googlecode.com/ -->
 <g>
  <title>Layer 1</title>
  <path fill="black" d="m416.873962,103.126556c25.875885,25.8759 40.126068,60.279999 40.126068,96.873978s-14.250702,70.997604 -40.126068,96.873428c-25.876404,25.875366 -60.279999,40.126038 -96.873932,40.126038s-70.997589,-14.250671 -96.873993,-40.126038c-25.875351,-25.875824 -40.126053,-60.279449 -40.126053,-96.873428s14.249634,-70.998093 40.126053,-96.873978s60.279968,-40.126556 96.873993,-40.126556s70.997528,14.250671 96.873932,40.126556zm-12.109436,181.638428c16.872894,-16.872925 28.091919,-37.891312 32.717834,-60.756882c-3.605408,5.307693 -7.054443,7.277054 -9.189819,-4.603958c-2.199463,-19.37001 -19.990173,-6.996109 -31.177582,-13.876587c-11.774506,7.935806 -38.238556,-15.429062 -33.741058,10.923599c6.939331,11.886398 37.463074,-15.908005 22.248596,9.242767c-9.706177,17.557953 -35.492126,56.44072 -32.137756,76.596359c0.423279,29.365082 -30.004639,6.12323 -40.488342,-3.617737c-7.052277,-19.511749 -2.403381,-53.616165 -20.843781,-63.171387c-20.015381,-0.869095 -37.194427,-2.68811 -44.951538,-25.064056c-4.668152,-16.008682 4.967316,-39.84079 22.122833,-43.519989c25.112213,-15.77803 34.082458,18.477341 57.633636,19.114182c7.312408,-7.651138 27.243744,-10.083954 28.896362,-18.663574c-15.452667,-2.726624 19.604858,-12.993073 -1.479218,-18.832657c-11.631653,1.367828 -19.125916,12.060776 -12.942749,21.127396c-22.540314,5.255783 -23.262207,-32.61879 -44.929047,-20.672546c-0.550659,18.888336 -35.379791,6.123779 -12.05069,2.293671c8.015564,-3.502045 -13.073914,-13.650772 -1.680359,-11.806595c5.596619,-0.303986 24.438416,-6.906754 19.339447,-11.345871c10.49176,-6.512856 19.308472,15.597137 29.577576,-0.503555c7.414032,-12.379776 -3.109314,-14.665443 -12.402313,-8.390175c-5.239136,-5.866417 9.250214,-18.536766 22.030273,-24.011932c4.259308,-1.824898 8.327606,-2.819214 11.437988,-2.537704c6.437317,7.436531 18.342377,8.72464 18.965332,-0.894264c-15.942291,-7.635071 -33.520569,-11.668556 -51.720123,-11.668556c-26.121552,0 -50.965668,8.301338 -71.525818,23.651237c5.525497,2.531273 8.662079,5.682831 3.338867,9.712013c-4.135681,12.323067 -20.91658,28.865273 -35.647858,26.52343c-7.648972,13.190521 -12.686386,27.722687 -14.839874,42.953796c12.338593,4.082153 15.183472,12.161407 12.532303,14.863937c-6.287018,5.482147 -10.150848,13.253189 -12.141647,21.760544c4.016357,24.573288 15.565536,47.220566 33.519516,65.175095c22.641373,22.640869 52.744461,35.109924 84.764511,35.109924c32.01944,0 62.123016,-12.469116 84.764496,-35.109924l0,0z" id="svg_7" stroke="null"/>
  <path fill="black" id="svg_4" d="m320,5.3125c-194.6875,0 -311.5,193.480423 -311.5,193.480423s116.8125,195.894577 311.5,195.894577s311.5,-194.6875 311.5,-194.6875s-116.8125,-194.6875 -311.5,-194.6875zm0,350.4375c-170.351563,0 -262.828125,-155.75 -262.828125,-155.75s92.476563,-155.75 262.828125,-155.75s262.828125,155.75 262.828125,155.75s-92.476563,155.75 -262.828125,155.75z"/>
 </g>
</svg>